<svg id="Layer_1" data-name="Layer 1" xmlns="http://www.w3.org/2000/svg" xmlns:xlink="http://www.w3.org/1999/xlink" viewBox="0 0 733 768"><defs><style>.cls-1{fill:url(#radial-gradient);}.cls-2{fill:#0288d1;opacity:0.71;}.cls-3{font-size:140px;font-family:BerlinSansFBDemi-Bold, Berlin Sans FB Demi;font-weight:700;}.cls-3,.cls-5{fill:#fff;}.cls-4{fill:#b3e5fc;}</style><radialGradient id="radial-gradient" cx="313.08" cy="390.28" r="325.96" gradientTransform="translate(90.52) scale(0.88 1)" gradientUnits="userSpaceOnUse"><stop offset="0" stop-color="#fff"/><stop offset="0.11" stop-color="#d6ecf8"/><stop offset="0.29" stop-color="#97ceec"/><stop offset="0.47" stop-color="#62b5e2"/><stop offset="0.63" stop-color="#38a1db"/><stop offset="0.78" stop-color="#1b94d5"/><stop offset="0.91" stop-color="#088bd2"/><stop offset="1" stop-color="#0288d1"/></radialGradient></defs><title>Artboard 1</title><path class="cls-1" d="M506.56,124.29c-54,0-103.36-22.82-141-60.46-37.68,37.64-87,60.46-141,60.46-50.8,0-97.46-20.18-134.18-53.88A736.77,736.77,0,0,0,79.67,195.66c0,243.8,117.44,450.13,279.27,519.21,2.43.64,4.87,1.27,7.33,1.86,3.12-.75,6.22-1.55,9.32-2.38,159.48-71,274.74-275.72,274.74-517.24a737.77,737.77,0,0,0-10.69-125.7C603.09,104.51,556.85,124.29,506.56,124.29Z"/><path class="cls-2" d="M521.28,84.35c-59.64,0-114.11-25.19-155.71-66.74C324,59.16,269.49,84.35,209.85,84.35c-56.08,0-107.59-22.28-148.13-59.48A813.52,813.52,0,0,0,50,163.14c0,269.15,129.65,496.94,308.31,573.2,2.69.71,5.38,1.4,8.09,2,3.45-.83,6.87-1.71,10.29-2.62C552.76,657.42,680,431.38,680,164.74A813.15,813.15,0,0,0,668.19,26C627.84,62.51,576.8,84.35,521.28,84.35Z"/><text class="cls-3" transform="translate(303.43 386.86)">ustos</text><ellipse class="cls-4" cx="238.8" cy="316.51" rx="24.89" ry="17.68" transform="translate(-150.11 393.67) rotate(-64.19)"/><path class="cls-4" d="M243,420.91c1.32-13.85,10.86-35.2,11.46-36.68a226.26,226.26,0,0,1,9.8-20.86c.78-1.68,3.46-7.89.66-12.17-3.12-4.77-11.11-3.65-14.74-4-31.54-3-60.26,27.56-64.13,68.28s18.55,76.15,50.09,79.15a47.67,47.67,0,0,0,29.41-7.09C249.69,473.19,240.44,448.24,243,420.91Z"/><path class="cls-5" d="M280.27,368.61c-1.69-6.83-6.44-12.25-13.23-15.95-.32,5.75-.46,7.66-.52,8l-.12.67h0a18.74,18.74,0,0,1,3.47,6.38c4.2,13.6-8.8,28.64-10.85,31-15.4,17.81-39.17,22.16-38,22a85.7,85.7,0,0,0,14.72-3C264.93,409.27,284.87,387.23,280.27,368.61Z"/><path class="cls-5" d="M219.84,432.6c-38-14.49-64.28-51.62-64.86-92.36-.71-50.19,37.69-93.44,84.64-101.12,48.37-7.91,84.11,25.48,88.38,29.6-19.06-28.53-49.92-47.07-84.75-47.07-57.89,0-104.82,51.21-104.82,114.38S185.36,450.4,243.25,450.4c26.53,0,50.75-10.76,69.21-28.49C308.05,424.77,266.84,450.49,219.84,432.6Z"/></svg>